<?xml version="1.0" encoding="utf-8"?>
<!-- Generator: Adobe Illustrator 27.3.1, SVG Export Plug-In . SVG Version: 6.00 Build 0)  -->
<svg version="1.1" id="Layer_1" xmlns="http://www.w3.org/2000/svg" xmlns:xlink="http://www.w3.org/1999/xlink" x="0px" y="0px"
	 viewBox="0 0 220 45" style="enable-background:new 0 0 220 45;" xml:space="preserve">
<g>
	<path fill="#FFFFFF" d="M206.8,13.7c-0.7-0.1-1.3-0.2-1.6-0.2c-0.3,0-0.8,0.3-1.4,1c-0.5,0.6-0.7,1-0.7,1.2c0,0,0,0.1,0,0.1c0,0,0,0,0.1,0
		c0,0,0.1-0.1,0.3-0.2c0.2-0.2,0.4-0.2,0.5-0.2c1.2,0,2,0.1,2.5,0.4c-0.4,0.3-1.2,0.7-2.2,1c-0.8,0.3-1.2,0.4-1.2,0.5
		c0,0.1,0.5,0.1,1.3,0c0.8-0.1,1.4-0.2,1.7-0.3c0.4-0.2,0.8-0.6,1.3-1.2c0.5-0.7,0.8-1.2,0.8-1.5C208.3,14,207.8,13.8,206.8,13.7
		L206.8,13.7z M209.2,22.2c0,0-0.1,0.2-0.3,0.5c-0.1,0.3-0.3,0.5-0.6,0.5c-0.4,0-0.6-0.3-0.6-0.8c0-0.2,0.1-0.5,0.2-0.9
		c0.1-0.4,0.2-0.7,0.2-0.8c0-0.1,0-0.1-0.1-0.2c-0.2-0.1-0.4,0.2-0.7,1c-0.3,0.7-0.4,1.2-0.4,1.6c0,0.3,0.1,0.7,0.3,1
		c0.2,0.4,0.5,0.5,0.8,0.5c0.4,0,0.8-0.2,1-0.7c0.2-0.4,0.3-0.8,0.3-1.3C209.4,22.3,209.4,22.2,209.2,22.2L209.2,22.2z M215,33.5
		c-0.7-0.3-1.1-0.5-1.2-0.5c-0.1,0-0.3,0.3-0.6,1c-0.3,0.6-0.5,1-0.5,1.2c0,0.1,0.3,0.3,1,0.7c0.7,0.4,1.1,0.6,1.2,0.6
		c0.1,0,0.3-0.3,0.6-1c0.3-0.7,0.4-1.1,0.4-1.3C216,34,215.6,33.8,215,33.5z M217.7,37.8c-0.1,0-1.2,0.4-3.2,1.4
		c-2.1,1-3.3,1.6-3.6,1.8c-0.2,0.2-0.5,0.5-0.7,0.8c-0.4,0.5-0.5,0.8-0.5,0.9c0,0,0,0,0,0c-0.1,0,1-0.5,3.1-1.5
		c1.1-0.5,2.3-1.1,3.4-1.6c0.2-0.1,0.5-0.4,0.9-0.9C217.5,38.3,217.7,38,217.7,37.8C217.7,37.8,217.7,37.8,217.7,37.8z M216.4,21.5
		c-1.3-2.5-2.2-3.8-2.5-3.8c-0.3,0-0.4,0.6-0.4,1.9c0,0.4,0,1,0.2,1.6c0.1,0.7,0.2,1,0.3,1c0.2,0,0.2-0.5,0.2-1.5
		c0.5,0.7,1.2,1.9,2.1,3.6c1,1.9,1.5,3.1,1.5,3.6c0,0.4-0.3,0.5-0.8,0.5c-0.4,0-0.8-0.1-1.4-0.2c-0.6-0.2-1-0.4-1.2-0.6
		c0.1-0.6,0.1-0.9-0.1-1c-0.1,0-0.4,0.3-0.7,1.1c-0.3,0.8-0.6,1.1-0.7,1.1c-0.7,0-1.3-0.2-1.8-0.5c0.2-0.7,0.3-1,0.3-1.2
		c0-0.1,0-0.2-0.1-0.3c-0.1,0-0.3,0.1-0.6,0.6c-0.3,0.5-0.6,0.9-0.9,1.2c-0.4,0.3-1,0.5-1.8,0.5c-0.9,0-1.4-0.1-1.5-0.2
		c0.2-0.1,0.3-0.3,0.4-0.6c0.1-0.3,0.2-0.6,0.2-0.8c0-0.1,0-0.2-0.1-0.2c-0.1,0-0.2,0.1-0.4,0.3c-0.2,0.3-0.5,0.5-0.9,0.7
		c-1.1,0.7-5.5,1.4-13,2.2c-3.6,0.4-8.3,0.7-13.9,1.1c-6,0.3-11.4,0.5-16,0.5c-9.6,0-18.7-0.4-27.3-1.3c-3.7-0.4-6.2-0.7-7.4-0.9
		c-3.1-0.6-5.2-1.6-6.3-2.9c-0.5-0.6-0.9-0.9-1.2-0.9c-0.5,0-1.1,0.5-1.6,1.5c-0.5,0.9-0.8,1.6-0.8,2.2c0,0.4,0.2,0.8,0.7,1.3
		c-2.8,2-4.9,3.5-6.5,4.5c-0.4,0.3-0.6,0.4-0.6,0.5c0,0,0,0,0.1,0c0.5,0,1.5-0.3,3-0.9c1.6-0.6,2.5-1.1,2.9-1.4
		c0.6-0.6,1.1-1.4,1.6-2.4c0.3,0.2,0.9,0.5,1.8,0.7c0.8,0.2,1.5,0.3,1.9,0.3c0.1,0,0.3-0.3,0.5-0.9c2.9,0.7,7,1.3,12.4,1.8
		c3.7,0.4,8.4,0.7,14.1,0.9c5.2,0.2,9.4,0.3,12.6,0.3c3.8,0,8.9-0.2,15.4-0.6c6.2-0.4,11.2-0.8,15.1-1.2c6-0.7,10-1.5,11.9-2.4
		c-0.1,0.2-0.1,0.4-0.1,0.5c0,0.4,0.8,0.6,2.3,0.6c1.1,0,2-0.4,2.7-1.3c0.7,0.6,1.5,0.9,2.4,0.9c0.5,0,1-0.8,1.5-2.3
		c0.3,0.2,0.7,0.5,1.4,0.9c0.8,0.4,1.3,0.7,1.6,0.7c0.3,0,0.6-0.2,1-0.7c0.4-0.6,0.7-1.4,0.7-2.3C218.6,26.2,217.9,24.2,216.4,21.5
		L216.4,21.5z M120.4,4.8c-0.1-0.2-0.3-0.2-0.4-0.2c-1.1,0-2,0.8-2.7,2.4c-0.2,0-0.4-0.1-0.7-0.2c-0.3-0.1-0.5-0.2-0.6-0.2
		c-0.4,0-0.8,0.3-1.2,0.8c-0.4,0.5-0.6,0.9-0.6,1.2c0,0.1,0,0.2,0.1,0.2c0,0,0.2-0.2,0.5-0.5c0.3-0.3,0.5-0.5,0.7-0.5
		c0.2,0,0.4,0.1,0.8,0.3c0.4,0.2,0.7,0.3,1,0.3c0.9,0,1.6-0.3,2.3-0.9c0.7-0.6,1-1.3,1-2.1C120.6,5.1,120.6,4.9,120.4,4.8z
		 M118.2,18.1c-0.4-1.9-0.8-3.7-1.2-5.6c-0.3-1.6-0.5-2.3-0.6-2.3c-0.3,0-0.4,1.1-0.4,3.2l0.9,4.1c0.7,2.8,1.1,4.8,1.2,5.8l0.4,2.6
		c0.1,0.9,0.2,1.3,0.3,1.3c0.3,0,0.4-1,0.4-2.9C119.2,23.3,118.9,21.3,118.2,18.1z M107.2,7.7c-0.2,0.5-0.4,0.9-0.5,1.4
		c1.1,1.2,1.7,2.6,1.8,4.2c0,0.5,0.1,0.7,0.1,0.7c0.2,0,0.3-0.5,0.3-1.6C109,10.6,108.4,9.1,107.2,7.7z M110.3,15.6
		c-0.1-0.6-0.2-0.9-0.4-0.9c-0.1,0-0.2,0.2-0.2,0.5c0,0.4,0,0.7,0,0.8c-0.1,0.1-0.3,0.2-0.5,0.2c-0.2,0-0.3,0-0.4-0.2
		c0-0.1-0.1-0.3-0.1-0.6c0-0.3-0.1-0.4-0.2-0.4c-0.1,0-0.2,0.2-0.2,0.5c-0.1,0.4-0.1,0.7-0.1,0.8c-0.1,0.3-0.4,0.5-0.8,0.5
		c-0.3,0-0.5-0.2-0.6-0.5c0-0.1,0-0.3,0.1-0.5c0.1-0.2,0.1-0.4,0.1-0.5c0-0.1,0-0.1-0.1-0.2c0,0,0,0,0,0c-0.1,0-0.3,0.3-0.5,0.9
		c-0.2,0.4-0.2,0.8-0.2,1.1c0.1,0.7,0.5,1,1.2,1c0.4,0,0.7-0.3,1.1-0.8c0.2,0.1,0.4,0.2,0.6,0.2c0.8,0,1.2-0.5,1.2-1.4
		C110.3,15.9,110.3,15.8,110.3,15.6L110.3,15.6z M97.3,4.4c-1.1,0-2,0.8-2.7,2.4c-0.1,0-0.3-0.1-0.6-0.2c-0.3-0.1-0.5-0.2-0.6-0.2
		c-0.4,0-0.8,0.3-1.2,0.9c-0.4,0.5-0.6,0.9-0.6,1.2c0,0.1,0,0.2,0.1,0.2c0.1,0,0.2-0.2,0.5-0.5c0.3-0.3,0.5-0.5,0.7-0.5
		c0.2,0,0.4,0.1,0.8,0.2c0.4,0.2,0.7,0.2,1,0.2c0.9,0,1.6-0.3,2.2-0.8c0.7-0.6,1-1.3,1-2.1C97.9,4.7,97.7,4.4,97.3,4.4z M114.5,25.5
		l-2.4-6.3c-0.1-0.2-0.1-0.3-0.2-0.3c0,0-0.1,0.1-0.1,0.4c-0.1,0.8-0.2,1.2-0.2,1.4c0,0.5,0.4,1.8,1.3,3.8c0.8,2,1.3,3.2,1.3,3.5
		c0,0.2-0.2,0.3-0.5,0.3c-0.1,0-0.3,0-0.4,0c-0.7,0-1.5-0.3-1.9-0.9c-0.4-0.4-0.8-1.6-1.2-3.4c-0.3-1.2-0.6-2.4-0.8-3.6
		c-0.2-0.7-0.3-1-0.4-1c-0.4,0.7-0.5,1.3-0.5,1.9c0,0.1,0.1,0.5,0.2,1.1c0.5,2.1,0.8,3.4,0.8,4c0,0.8-0.3,1.3-0.9,1.8
		c-0.5,0.4-1.2,0.6-2,0.6c-1.2,0-1.9-0.6-2.1-1.8c-0.1-0.4-0.1-1.4-0.1-2.9c0-0.8,0-1.2-0.1-1.2c-0.2,0-0.3,0.3-0.5,1
		c-0.1,0.2-0.1,0.5-0.1,0.7c0,0.1-0.4,0.3-1.3,0.7c-1.1,0.5-1.9,1.1-2.5,1.7c-0.3,0.4-0.7,0.9-1,1.6c-0.2,0.5-0.1,0.8,0.4,1.1
		c0.3,0.2,0.7,0.3,1.3,0.3c1.1,0,1.9-0.2,2.2-0.7c0,0,0.2-0.2,0.4-0.6c0.1-0.3,0.3-0.4,0.4-0.5c0,1,0.2,1.7,0.6,2.1
		c0.5,0.7,1.3,1.1,2.3,1.1c1,0,1.8-0.4,2.5-1.2c0.3-0.4,0.6-1,0.8-1.6c0.1-0.4,0.2-0.6,0.3-0.7c0,0,0.1,0.2,0.2,0.6
		c0.1,0.5,0.3,1,0.5,1.3c0.2,0.3,0.5,0.6,1,0.8c0.5,0.2,0.9,0.3,1.2,0.3c0.8,0,1.3-0.4,1.7-1.3c0.2-0.4,0.3-1.1,0.3-2
		C114.8,26.6,114.7,25.9,114.5,25.5z M101.7,15.9c-0.7-0.6-1.4-0.9-2.2-0.9c-0.3,0-0.5,0.2-0.5,0.6c0,0.4,0.1,0.6,0.4,0.8
		c-0.1,0.3-0.2,0.7-0.2,1.2c0,0.6,0.3,0.9,1,1.1c-0.4,0.5-0.9,1.1-1.8,1.6c-0.6,0.4-1.1,0.8-1.7,1.2c-0.6,0.4-0.9,0.7-0.9,0.8
		c0,0.1,0.1,0.1,0.2,0.1c0.3,0,0.8-0.2,1.5-0.6c0.7-0.4,1.3-0.7,1.7-1.1c0.6-0.5,1.2-1.1,1.8-2c0.1,0,0.3,0.1,0.6,0.2
		c0.3,0.1,0.5,0.2,0.6,0.2c0.3,0,0.5-0.4,0.5-1.1C102.7,17.2,102.4,16.5,101.7,15.9z M121.3,36c-0.3,0-1.1,0.4-2.6,1.1
		c-1.4,0.7-2.3,1.2-2.6,1.4c-0.5,0.5-0.8,0.8-0.9,1c-0.3,0.4-0.5,0.7-0.4,0.7c0,0,0,0,0.1,0c0.6-0.3,1.2-0.7,1.8-1
		c1.2-0.6,2.4-1.2,3.7-1.8c0.1-0.1,0.3-0.3,0.6-0.7C121.2,36.4,121.3,36.1,121.3,36C121.3,36,121.3,36,121.3,36z M94.4,15.3
		c-0.5-2.8-0.8-4.4-0.8-4.8c-0.1-0.7-0.2-1.1-0.3-1.1c-0.1,0-0.2,0.6-0.4,1.8c-0.2,1.2-0.3,1.9-0.2,2.1c0.8,4.6,1.4,7.8,1.7,9.7
		c0.2,1.3,0.4,3.2,0.6,5.7c0,0.3,0.1,0.4,0.2,0.4c0.2,0,0.2-0.1,0.2-0.3c0.2-1,0.3-2.5,0.2-4.4C95.5,22.4,95.1,19.3,94.4,15.3z
		 M87.1,5.8c-0.1,0-1.4,0.5-3.9,1.7c-2.6,1.2-4,1.9-4.3,2.1c-0.2,0.1-0.4,0.4-0.7,0.8c-0.3,0.4-0.5,0.7-0.5,0.9c0,0,0,0,0,0
		c-0.1,0,0.9-0.5,3.1-1.5c1.9-0.9,3.5-1.6,4.8-2.2c0.2-0.1,0.5-0.4,0.9-0.9C86.9,6.3,87.1,6,87.1,5.8C87.1,5.8,87.1,5.8,87.1,5.8z
		 M85.3,13c-0.1-0.7-0.3-1.1-0.5-1c-0.1,0-0.2,0.1-0.2,0.3c0,0.1,0,0.3,0,0.4c0,0.2,0,0.3,0,0.4c0,0.5-0.2,0.8-0.6,0.8
		c-0.2,0-0.3-0.1-0.4-0.2c0-0.1-0.1-0.3-0.1-0.7c-0.1-0.3-0.1-0.5-0.2-0.5c-0.1,0-0.2,0.2-0.2,0.6c0,0.3-0.1,0.6-0.1,0.9
		c-0.1,0.3-0.4,0.5-0.8,0.6c-0.3,0.1-0.5-0.1-0.6-0.5c0-0.2,0-0.3,0-0.5c0-0.2,0.1-0.3,0.1-0.5c0-0.1,0-0.2-0.1-0.2c0,0,0,0,0,0
		c-0.1,0-0.3,0.3-0.5,1c-0.1,0.5-0.1,0.9-0.1,1.2c0,0.3,0.2,0.6,0.5,0.8c0.2,0.2,0.6,0.3,0.9,0.2c0.6-0.1,0.9-0.4,1.1-0.8
		c0.2,0.2,0.5,0.4,0.8,0.4c0.8,0,1.2-0.5,1.2-1.6C85.4,13.5,85.4,13.3,85.3,13L85.3,13z M99.8,33.5c-1.5,0.7-2.3,1.2-2.6,1.4
		c-0.6,0.5-0.9,0.8-1,0.9c-0.3,0.4-0.4,0.7-0.4,0.8c0,0,0,0,0,0c0.1,0,0.3-0.1,0.7-0.3c0.5-0.3,0.9-0.5,1.2-0.7
		c1.2-0.6,2.5-1.2,3.7-1.8c0.3-0.2,0.6-0.5,0.9-0.9c0.3-0.4,0.4-0.6,0.1-0.6C102.1,32.4,101.2,32.8,99.8,33.5L99.8,33.5z M74.1,8.2
		C73.4,8.1,72.8,8,72.4,8c-0.3,0-0.8,0.3-1.4,1c-0.5,0.6-0.7,1-0.7,1.1c0,0,0,0,0,0.1c0,0,0,0,0.1,0c0,0,0.1-0.1,0.3-0.2
		c0.2-0.2,0.4-0.2,0.5-0.2c0.2,0,0.7,0,1.3,0.1c0.7,0.1,1.1,0.2,1.2,0.3c-0.4,0.3-1.2,0.6-2.2,0.9c-0.8,0.3-1.2,0.4-1.2,0.5
		c0,0.1,0.2,0.1,0.5,0.1c1,0,1.8-0.1,2.4-0.4c0.4-0.2,0.8-0.6,1.4-1.2c0.6-0.7,0.9-1.2,0.9-1.5C75.6,8.5,75.1,8.3,74.1,8.2z
		 M90.2,19.4c-0.7-4-1.1-6.1-1.1-6.1c0.3-1,0.5-1.5,0.5-1.6c0,0-0.1-0.1-0.3-0.2c-0.5-0.3-0.7-0.9-0.8-1.6c0-0.3-0.1-0.5-0.2-0.5
		c-0.1,0-0.3,0.4-0.5,1.1c-0.2,0.7-0.3,1.1-0.3,1.4c0,0.4,0.1,0.8,0.4,1.1l1.3,6.8c0.8,4.4,1.2,6.9,1.2,7.5c0,0.7-0.6,1-1.7,1
		c-0.3,0-0.5,0-0.6-0.1c-0.3-0.3-0.7-0.6-1-1c-0.3,0.8-0.5,1.5-0.7,2.3c0.6,0.4,0.9,0.9,0.9,1.5c0,0.4-0.4,0.9-1.2,1.7
		c-1.6,1.6-3.4,2.4-5.5,2.4c-0.3,0-0.8,0-1.4-0.1c-0.5-0.1-1-0.1-1.4-0.1c-0.2,0-0.2,0-0.2,0.1c0,0.2,0.3,0.5,1,0.8
		c0.5,0.3,1,0.5,1.5,0.7c1.2,0.4,2,0.6,2.5,0.6c0.9,0,1.9-0.6,3.1-1.7c1.4-1.3,2.2-2.8,2.5-4.4c1,0,1.7-0.4,2.2-1.3
		c0.4-0.7,0.6-1.6,0.6-2.7C91.2,25.7,90.8,23.2,90.2,19.4z M66.1,8.8c-0.2,0.4-0.4,0.9-0.5,1.4c0.7,0.7,1.2,1.5,1.4,2.4
		c0.2,0.5,0.3,1.1,0.3,1.8c0,0.5,0.1,0.7,0.2,0.7c0.2,0,0.4-0.5,0.4-1.6C67.9,11.7,67.3,10.2,66.1,8.8z M62.6,4.5
		c-1,0-1.9,0.8-2.7,2.4c-0.2,0-0.4-0.1-0.7-0.2c-0.3-0.1-0.5-0.2-0.6-0.2c-0.4,0-0.8,0.3-1.2,0.8c-0.4,0.5-0.6,0.9-0.6,1.2
		c0,0.1,0,0.2,0.1,0.2c0.1,0,0.2-0.2,0.5-0.5c0.3-0.3,0.5-0.5,0.7-0.5c0.2,0,0.4,0.1,0.8,0.2c0.4,0.2,0.7,0.2,1,0.2
		c0.9,0,1.6-0.3,2.3-0.8c0.7-0.6,1-1.3,1-2.1C63.3,4.7,63.1,4.5,62.6,4.5z M65.5,18c-0.7-0.4-1-0.5-1.2-0.5c-0.1,0-0.3,0.3-0.5,0.9
		c-0.2,0.6-0.3,1-0.3,1.2c0,0.2,0.3,0.4,0.9,0.8c0.6,0.4,0.9,0.5,1.1,0.5c0.1,0,0.3-0.3,0.6-1s0.4-1.1,0.4-1.2
		C66.5,18.6,66.2,18.3,65.5,18z M60.4,15.4c-0.5-2.3-0.8-3.9-0.9-4.8c-0.1-0.7-0.2-1-0.4-1c-0.1,0-0.2,0.6-0.3,1.8
		c-0.2,1.2-0.2,1.9-0.2,2.1c0.6,2.9,1.1,5.9,1.7,8.8c0.3,1.4,0.5,3.3,0.7,5.7c0.1,0.3,0.1,0.4,0.3,0.4c0.1,0,0.2-0.1,0.2-0.3
		c0.2-1.1,0.2-2.5,0.1-4.4C61.5,21.4,61.1,18.6,60.4,15.4z M50.3,13.4c-0.1-0.7-0.3-1.1-0.5-1c-0.1,0-0.2,0.1-0.2,0.3
		c0,0.1,0,0.3,0.1,0.4c0,0.2,0.1,0.3,0.1,0.4c0,0.5-0.2,0.8-0.7,0.8c-0.2,0-0.3-0.1-0.4-0.2c0-0.2-0.1-0.4-0.1-0.6l0-0.2
		c-0.1-0.3-0.1-0.5-0.2-0.5c-0.1,0-0.2,0.2-0.2,0.6C48,14,48,14.2,48,14.3c-0.1,0.3-0.4,0.5-0.8,0.6c-0.3,0.1-0.5-0.1-0.6-0.5
		c0-0.1,0-0.3,0.1-0.5c0.1-0.3,0.1-0.4,0.1-0.5c0-0.1,0-0.2-0.1-0.2c-0.1-0.1-0.3,0.3-0.6,1c-0.1,0.4-0.1,0.8-0.1,1.2
		c0.1,0.7,0.5,1,1.1,1c0.7,0,1.1-0.3,1.4-0.9c0.2,0.2,0.5,0.4,0.8,0.4c0.8,0,1.2-0.5,1.2-1.6C50.3,13.9,50.3,13.7,50.3,13.4z
		 M69.5,35.4c-1.5,0.7-2.3,1.2-2.6,1.4c-0.3,0.3-0.6,0.6-0.9,1c-0.3,0.4-0.5,0.7-0.4,0.7c0,0,0.6-0.3,1.9-1c1.2-0.6,2.4-1.2,3.7-1.8
		c0.4-0.3,0.7-0.6,0.9-0.9c0.3-0.4,0.4-0.6,0.1-0.6C71.9,34.3,71,34.7,69.5,35.4z M55.5,16.2c-0.8-4.5-1.3-6.7-1.6-6.6
		c-0.3,0.1-0.5,0.9-0.7,2.3c-0.1,0.8-0.2,1.7-0.2,2.5c0,1.7,0.1,3.2,0.2,4.6c0.1,1.2,0.3,1.8,0.4,1.8c0.1,0,0.1-0.3,0.1-0.9
		l-0.1-3.2c0-1.5,0-2.6,0.1-3.4L55,19c0.6,3.4,1,5.4,1,6c0,0.3-0.3,0.5-1,0.7c-0.6,0.1-1,0.1-1.2,0c-0.4-0.3-0.7-0.5-0.8-0.7
		c-0.3-0.2-0.6,0-0.8,0.8c-0.2,0.7-0.2,1.3,0.1,1.6c0.7,0.5,1,1,1,1.5c0,0.8-0.6,1.7-1.9,2.7c-1.3,1.1-2.5,1.6-3.7,1.6
		c-1.1,0-1.9-0.4-2.4-1.1c-0.2-0.4-0.4-0.9-0.4-1.7c-0.1-0.7-0.1-1-0.2-1c-0.2,0-0.3,0.4-0.3,1.3c0,0.8,0.1,1.5,0.4,2.2
		c0.7,1.7,2,2.5,3.7,2.5c1.4,0,2.7-0.9,4-2.5c1.2-1.6,1.7-3.1,1.7-4.4c1-0.1,1.8-0.5,2.2-1.3c0.3-0.6,0.5-1.4,0.5-2.6
		C56.7,23.4,56.3,20.6,55.5,16.2z M37.4,8.5c-7.8,2-12.8,3.4-14.8,4.4c-1,0.5-1.8,1.1-2.4,1.8c-0.5,0.6-0.7,1-0.7,1.3
		c0,0.1,0,0.1,0.1,0.1c0,0,0.2-0.2,0.7-0.5c0.7-0.5,1.6-0.9,2.8-1.4c3.2-1.2,7.5-2.5,12.7-3.8c5.4-1.3,11-2.6,16.9-3.9
		c0.7-0.7,1.2-1.3,1.7-1.9C50.3,5.4,44.7,6.6,37.4,8.5z M81.6,19.2c-0.5-0.2-1.6-0.7-3.2-1.6c-0.8-0.4-1.6-0.7-2.3-0.7
		c-1.3,0-2.2,0.6-2.7,1.9c-0.1,0.2-0.1,0.4-0.2,0.6c0.7,0,1.3-0.1,2-0.1c0.7,0,1.3,0,1.8,0.1c0.5,0.2,1.3,0.4,2.2,0.8
		c-3.3,0.4-5.4,1.1-6.5,2.1c-0.3,0.2-0.6,0.7-1.1,1.5c-0.5,0.7-0.8,1.1-1,1.3c-0.4,0.4-1.1,0.5-2,0.5c-0.4,0-0.7-0.1-0.9-0.2
		c-0.2-0.1-0.4-0.4-0.6-0.8c-0.2-0.4-0.4-0.7-0.6-0.8c-0.1-0.1-0.3,0.2-0.6,1c-0.3,0.7-0.3,1.2-0.1,1.5c0.6,0.8,0.9,1.6,0.9,2.4
		c0,2.3-3.3,4.8-10,7.3c-5.5,2.1-11.6,3.1-18.5,3.1c-6.8,0-12.9-1.4-18.1-4.1c-1.3-0.7-2.6-1.6-3.8-2.5c-0.8-0.7-1.6-1.4-2.3-2.1
		c-0.6-0.6-0.9-0.8-0.9-0.8c0,0,0,0,0,0.1c0,0.4,0.6,1.5,1.7,3.2c1.3,1.9,2.4,3.2,3.4,3.9c1.9,1.4,4.5,2.5,7.7,3.4
		c3.7,1,7.7,1.6,12,1.6c7.1,0,14-1.4,20.6-4.2c5.8-2.4,8.9-5.6,9.3-9.5c0.2,0,0.3,0,0.4,0c1.3,0,2.3-0.7,3-2.1
		c1,1.2,2.2,1.8,3.7,1.8c0.4,0,0.8-0.4,1.1-1.1c0.3-0.7,0.4-1.2,0.4-1.7c0-0.8-0.4-1.4-1.1-2.1c0.5-0.2,1.3-0.4,2.6-0.7
		c1.4-0.3,2.5-0.4,3.4-0.4c1.5,0,3.2,0.3,5,0.9c1-1.2,1.5-1.8,1.5-1.8C85.1,20.3,83,19.8,81.6,19.2z M19.6,7.9
		c-0.7-0.1-1.3-0.2-1.6-0.2c-0.4,0-0.8,0.3-1.4,1c-0.5,0.6-0.7,1-0.7,1.1c0,0.1,0,0.1,0.1,0.1c0,0,0.1-0.1,0.3-0.2
		c0.2-0.2,0.4-0.2,0.5-0.2c0.3,0,0.7,0,1.3,0.1c0.7,0.1,1.1,0.2,1.2,0.3c-0.4,0.3-1.2,0.6-2.2,0.9c-0.8,0.3-1.2,0.4-1.2,0.5
		c0,0.1,0.2,0.1,0.5,0.1c1,0,1.8-0.1,2.4-0.3c0.4-0.2,0.8-0.6,1.3-1.2C20.8,9.3,21,8.8,21,8.5C21,8.3,20.5,8.1,19.6,7.9z M27.1,18.5
		C27.1,18.8,27,19,27,19.2c-0.1,0.4-0.3,0.6-0.7,0.6c-0.6,0-1-0.5-1-1.5c0-0.1,0-0.2,0-0.4c0-0.2,0-0.3,0-0.4c0-0.2,0-0.3-0.1-0.3
		c-0.1,0-0.3,0.3-0.4,0.9c-0.1,0.4-0.1,0.9-0.2,1.3c0,0.5,0.1,0.9,0.3,1.3c0.3,0.5,0.6,0.7,1.1,0.7c0.4,0,0.7-0.2,1-0.7
		c0.2-0.4,0.3-0.8,0.3-1.2C27.4,18.8,27.3,18.5,27.1,18.5z M36.2,28.2c0,0-0.1,0.2-0.3,0.6c-0.1,0.4-0.2,0.6-0.2,0.7
		c0,0,0,0.1,0,0.1c1,1.1,1.6,2.5,1.8,4.2c0,0.5,0.1,0.7,0.2,0.7c0.2,0,0.3-0.5,0.3-1.6C38,31.1,37.4,29.6,36.2,28.2z M47.3,20.6
		c-1-0.3-2.2-0.7-3.6-1.2c-1.1-0.4-1.7-0.6-1.9-0.6c-0.9,0-1.6,0.4-2.1,1.2c-0.4,0.6-0.6,1.1-0.6,1.5c0,0,0,0.1,0,0.1
		c0.4,0,0.9-0.1,1.3-0.1c1.8,0,3.5,0.3,5.1,0.9c-2,1.1-3.5,1.6-4.6,1.6c-0.6,0-1.1-0.1-1.4-0.4c-0.2-0.2-0.4-0.4-0.4-0.5
		c0,0.1,0-0.1,0.1-0.4c0-0.2,0-0.3-0.1-0.3c-0.1,0-0.2,0.1-0.5,0.4c-0.3,0.4-0.8,0.7-1.4,1c-1.2,0.5-3,1-5.5,1.4
		c-2.8,0.5-5.6,0.7-8.5,0.7c-5.2,0-8.7-1-10.6-3.1c-0.5-0.6-0.9-0.9-1.2-0.9c-0.6,0-1.1,0.5-1.6,1.5c-0.5,0.9-0.7,1.6-0.7,2.2
		c0,0.4,0.2,0.8,0.7,1.2c-2.7,1.9-4.8,3.4-6.4,4.5c-0.4,0.3-0.6,0.5-0.6,0.6c0,0,0.1,0,0.1,0c0.4,0,1.5-0.3,3-1
		c1.6-0.6,2.5-1.1,2.9-1.4c0.6-0.5,1.1-1.3,1.5-2.4c0.3,0.2,0.9,0.4,1.8,0.7S13.6,28,14,28c0.3-0.1,0.4-0.4,0.6-1
		c1.4,0.7,3.9,1.1,7.5,1.1c3.7,0,7.1-0.3,10.3-1c3.5-0.7,5.6-1.7,6.1-2.8c0.6,1.2,1.3,1.8,2,1.8c0.5,0,2-0.5,4.5-1.5
		c2.5-1,4.3-1.5,5.3-1.5c0.8,0,1.6,0.1,2.3,0.3c0.1,0,0.3-0.3,0.7-1.1c0.3-0.6,0.5-0.9,0.5-1c0,0,0,0,0,0C51,21.2,48.9,21,47.3,20.6
		z M28.4,29.5c-0.7-0.3-1.1-0.5-1.2-0.5c-0.3,0.6-0.6,1.1-0.8,1.6l-1.3-0.6c-0.5-0.2-0.9-0.3-0.9-0.3c-0.1,0-0.3,0.4-0.5,1
		s-0.3,1.1-0.3,1.2c0,0.1,0.4,0.3,1,0.6c0.7,0.3,1.1,0.5,1.2,0.5c0.1,0,0.4-0.5,0.8-1.6c1.2,0.7,1.9,1,2.2,0.9c0.1,0,0.3-0.4,0.6-1
		c0.3-0.7,0.4-1.1,0.4-1.2C29.5,30.1,29.1,29.8,28.4,29.5z M10,35.5c-1.5,0.7-2.4,1.2-2.6,1.4c-1.1,1-1.6,1.5-1.3,1.7c0,0,0,0,0.1,0
		c0.2-0.1,0.8-0.4,1.8-1c1.2-0.6,2.4-1.2,3.7-1.8c0.3-0.2,0.6-0.5,0.9-0.8c0.3-0.4,0.4-0.6,0.1-0.6C12.4,34.5,11.5,34.8,10,35.5z
		 M119,6.9c-0.5,0.2-0.9,0.2-1.2,0.2c0.5-1,1.1-1.5,1.5-1.5c0.4,0,0.5,0.2,0.5,0.5C119.9,6.4,119.6,6.7,119,6.9z M119.8,28.5
		c0-0.1,0.1-0.3,0.3-0.5c0.2-0.2,0.4-0.3,0.5-0.3c0.1,0,0.3,0.2,0.6,0.7c0.3,0.6,0.6,1.1,0.9,1.3C120.5,29.3,119.8,28.9,119.8,28.5z
		 M96.3,6.7c-0.5,0.2-0.9,0.2-1.2,0.2c0.5-1,1-1.5,1.5-1.5c0.4,0,0.5,0.2,0.5,0.6C97.2,6.3,96.9,6.5,96.3,6.7z M102.2,17.9
		c-0.2,0-0.4-0.1-0.8-0.2c0.1-0.2,0.1-0.4,0.1-0.6c0-0.1,0-0.3-0.1-0.4c0.1,0,0.4,0.2,0.6,0.5c0.2,0.3,0.3,0.4,0.3,0.5
		c0,0,0,0,0,0.1C102.3,17.9,102.2,17.9,102.2,17.9z M100.7,17.6c-0.6,0-0.8-0.1-0.8-0.3c0-0.5,0.2-0.7,0.5-0.7
		c0.3,0,0.4,0.2,0.4,0.5C100.7,17.3,100.7,17.5,100.7,17.6z M103.5,27.1c-0.7,0.4-1.6,0.5-2.4,0.5c-0.5,0-0.7-0.1-0.7-0.2
		c0-0.2,1-0.8,3.1-1.9C103.6,25.8,103.5,26.3,103.5,27.1z M61.7,6.8C61.2,6.9,60.8,7,60.5,7C61,6,61.5,5.5,62,5.5
		c0.4,0,0.5,0.2,0.5,0.5C62.5,6.3,62.3,6.6,61.7,6.8z M75.1,25.6c-0.4,0-1-0.2-1.6-0.5c-0.2-0.1-0.4-0.3-0.6-0.5
		c-0.2-0.3-0.3-0.5-0.2-0.6c0.1-0.1,0.3-0.1,0.6-0.1c0.3,0,0.6,0.1,0.9,0.2c0.8,0.4,1.2,0.9,1.2,1.3C75.3,25.5,75.2,25.6,75.1,25.6z
		 M10.6,24c0-0.1,0.1-0.3,0.3-0.5c0.2-0.2,0.4-0.4,0.5-0.4c0.1,0,0.3,0.3,0.5,0.8c0.3,0.6,0.6,1.1,0.9,1.3
		C11.3,24.8,10.6,24.4,10.6,24z"/>
</g>
</svg>
